<?xml version="1.0" encoding="UTF-8"?>
<svg width="100" height="100" viewBox="0 0 100 100" xmlns="http://www.w3.org/2000/svg">
    <path fill="#FFD700" d="M50 0c-3.3 0-6 2.7-6 6v4.1c-2.8.5-5.4 1.4-7.9 2.6l-2.9-2.9c-2.3-2.3-6.1-2.3-8.5 0L17.2 17.2c-2.3 2.3-2.3 6.1 0 8.5l2.9 2.9c-1.2 2.5-2.1 5.1-2.6 7.9H13c-3.3 0-6 2.7-6 6v8.5c0 3.3 2.7 6 6 6h4.1c.5 2.8 1.4 5.4 2.6 7.9l-2.9 2.9c-2.3 2.3-2.3 6.1 0 8.5l7.5 7.5c2.3 2.3 6.1 2.3 8.5 0l2.9-2.9c2.5 1.2 5.1 2.1 7.9 2.6V87c0 3.3 2.7 6 6 6h8.5c3.3 0 6-2.7 6-6v-4.1c2.8-.5 5.4-1.4 7.9-2.6l2.9 2.9c2.3 2.3 6.1 2.3 8.5 0l7.5-7.5c2.3-2.3 2.3-6.1 0-8.5l-2.9-2.9c1.2-2.5 2.1-5.1 2.6-7.9H87c3.3 0 6-2.7 6-6v-8.5c0-3.3-2.7-6-6-6h-4.1c-.5-2.8-1.4-5.4-2.6-7.9l2.9-2.9c2.3-2.3 2.3-6.1 0-8.5l-7.5-7.5c-2.3-2.3-6.1-2.3-8.5 0l-2.9 2.9c-2.5-1.2-5.1-2.1-7.9-2.6V6c0-3.3-2.7-6-6-6h-8.5zM50 30c11 0 20 9 20 20s-9 20-20 20-20-9-20-20 9-20 20-20z"/>
</svg>
