<?xml version="1.0" encoding="UTF-8"?>
<svg id="Calque_1" data-name="Calque 1" xmlns="http://www.w3.org/2000/svg" viewBox="0 0 671.16 687.21">
  <defs>
    <style>
      .cls-1 {
        fill: gold;
      }
    </style>
  </defs>
  <path class="cls-1" d="M325.04,183.12c-1.11,5.75-1.81,11.5-4,16.99l12.86-.12c4.07-13.09,10.01-25.45,13.87-38.63,4.06-13.87,6.77-28.47,10.54-42.46s14.67-40.59,12.39-54.12c-2.12-12.53-5.74-17.16-3.42-31.91,1.54-9.8,6.11-11.54,14.46-14.36.77-.26,2.1.62,3.26.12,1.27-.55,11.64-12.08,14.03-9.5l-.99,7.99,6.99-3.99c.48.54-.44,5.07-.06,6.43.29,1.07,2.15.08,3.15,1.19,1.85,2.06,3.46,11.94,3.93,12.38.11.11,2.17.4,2.02-.62l5.98-6.37c.55-.29,1.71,1.07,1.86,1.68.49,2.02-5.57,13.5-7.01,16.66-2.52,5.51-10.39,24.69-14.49,27.54-1.88,1.31-5.67,1.74-7.19,4.76,1.38,4.69-5.15,21.04-.66,23.35.7-.27,3.02-1.64,3.48-1.99,1.85.36,8.01-.61,8.86.15.47.42,2.72,7.08,6.14,7.85-2.5,4.37-4.61,9.5-6.99,13.99,1.55.38.56-1.41,1.72-1.96s4.54-1.5,5.98-1.84c4.61-1.08,1.16,2.03.55,3.56-1.5,3.72-2.52,8.03-4.43,11.57-1.33,2.48-8.44,10.51-8.59,11.29-.16.82,1.51,12.64,1.82,14.82.47,3.28,2.94,5.18.94,9.56l11.99-5.99c.39,1.56-.41,2.35-.95,3.54-1.45,3.22-7.64,11.58-7.96,14-.99,7.47,1.97,14.28,2.85,21.03.17,1.27-.75,2.97-.67,4.7.26,6.05,3.28,3.24,5.97,4,5.5,1.54,11.36,3.01,16.77,4.73,10.49,3.34,27.96,10.09,37,16,5.17,3.38,8.96,8.71,14.48,11.77,3.73-3.06,6.63-5.49,11.51-6.77.95,5.72-2.8,10.46-2.98,16l9.99-2.99c-.65,6.04-6.01,10.83,3,12.56l48.93-55.34c.45-12.86,3.41-27.51,12.63-37.16,3.78-3.95,7.97-3.97,12.2-5.77,1.99-.85,1.51-2.99,6.75-3.3,3.88-.23-.47,3.27-.49,3.52-.14,1.72,2.9.37,2.97.5.33.62-2.11,11.64-.99,14l7.99-1.5c-1.71,2.11-4.42,3.89-6,6-4.64,6.22-9.43,15.49-14.96,21.04-3.11,3.13-8.35,4.16-10.09,6.18-3.03,3.52-4.4,10.31-6.22,14.51-1.25,2.89-5.56,5.49-2.23,7.75.95-1.35,2.1-1.53,3.5-1.98-.32,3.61-.41,6.1,3,8-2.37,2.08-4.8,4.23-6.99,6.51-.83,1.94,3.64,1.24,1.98,3.46-.6.81-6.26,4.16-7.34,5.16-9.87,9.15-9.62,18.93-13.89,31.12-1.21,3.45-5.17,9.35-5.57,12.48s3.41,11.62,3.57,14.94c.05,1.11-2.11,6.83-2.76,8.32-4.92,11.28-5.48,18.67-8,30-.8,3.6-1.94,6.55-3,10-2.62-4.74-4.22-9.9-6.83-14.67-8.58-15.66-27.43-26.46-42.17-36.33-16.9-11.32-18.23-12.65-38-18-10.05-2.72-15.13-4.83-26-6-.68-1.2-2.02-1.38-3-2-18.36-11.63-56.5-8.91-78.54-9.96-10.2-.49-20.72-3.01-30.98-2.06-1.77.16-3.44.33-4.48,2.02-.24-.22-1.46.19-2,0-.65-.23-1.21-.94-1.98-1.01-2.1,1.89-4.63,26.47-5.25,31.28-1.52,11.69-1.93,20.52-2.78,32.22-.39,5.38-2.77,10.87-1.98,16.52l-42-2h-16c-1.4-18.74.2-36.43,1-55,.19-4.55,2.08-16.11-1-19-1.74-1.63-4.15-1.15-6.49-.98-11.24.79-28.75,6.22-39.2,10.8-5.14,2.25-8.52,5.73-14.31,7.19,3.55-9.26,8.38-9.59,7-22.5-1.24-11.57-13.93-13.64-21-5.5-10.26,3.44-11.8,23.63,1,25,2.8,5.64,7.81,4.3,13,3-.11.28.1.69,0,1-.69,2.07.57,3.49-2.62,3.94-1.93.27-1.43-3.9-3.38-1.93-.29.29.86,1.52.75,2.35-8.07,6.87-15.23,14.65-21.89,22.99-1.12,1.4-1.73,2.68-3.86,2.65.28-4.02.71-7.98,1-12,.72-9.82-.24-19.14-3.94-28.57-.64-1.62-1.39-2.77-3.06-3.43-1.03-8.84-6.53-22.35-8.61-31.71-2.07-9.3-4.4-19.34-6.32-28.86-.78-3.86-.3-9.71-1.51-13.49-.27-.85-7.89-12.02-9.56-14.94,1.23-.3,4.79.75,5.01-.63,1.27-7.78,1.95-11.27-.71-19.17-2.59-7.68-7.01-10.52-11.3-2.2-.34-5.4-2.27-15.6,2.43-19.08,5.15-3.82,9.93,5.06,11.07,5.06.69,0,8.69-8.49,11.49-6.98,1.02.99-5.11,12.68-3.5,14.99l3.5-1.99c1.2,1.38-2.96,11.25-3.12,13.5-.26,3.86,2.9,11.52,2.08,18.94-.19,1.67-2.12,2.63-1.83,4.8.26,1.93,2.99,4.35,2.88,6.74,1.36-2.33,8.63-7.68,7.99-1-3.39,2.89.8,7.97.97,10.55.2,2.92-1.69,5.56-.75,9.74,1.16,5.16,5.52,4.41,5.78,4.71s-.18,2.22,0,3.01c2.48-2.3,4.12-2.3,6.99-3.01,2.62-.64,6.81-2.58,6,1-.8,2.03-4.8,11.89-3.99,13,2.53-1.74,4.62-3.54,7.99-2.99l-3.99,8.5,1.5.51,13.25-12.03,20.3-11.61c.09-4.29-.29-8.63-.1-12.92,1.47-33.01,2-72.93-.98-105.94-.92-10.23-3.1-7.49-7.98-13.02-10.23-11.58-11.33-24.72-1-37,6.2-7.37,10.55-4.32,14.79-6.72.29-.17,2.51-4.04,4.17-5.32,10.17-7.83,4.24,4.49,5.05,5.54l4.98-2.99c-2.45,6.23,3.62,6.32,3.01,11.99l10.99-5.99c1.34,8.16-8.99,14.31-11.23,19.26-1.74,3.86-1.13,9.41-2.69,13.31-1.15,2.88-4.96,5.09-5.65,8.4-.45,2.17,1.53,11.1,5.56,8.01-1.86,5.45-.31,4.73,3,7,.36.25.69.89,1,1,3.85,1.41,6.04,1.38,10,0-1.21,2.1-5.05,8.36-5.56,9.96-1.79,5.62,3.89,9.56,4.57,15.04l9.98-5c1.24,4.4-3.73,7.96-4.59,10.98-.97,3.44,6.71,15.42,8.77,19.34,1.16,2.21,2.03,5.26,2.84,7.67.83.59,3.25-1.39,3.99-2,7.11,6.12-2.83,17.81,8,21-1.18,4.16,6.66,12.6,8.39,17.1,1.72,1.51,10.69,1.03,13.61.9,10.74-.48,22.44-2.26,33-3,1.6-.11,7.29,1.15,8.86-.14.38-.32,1.66-5.78,4.14-8.86,1.72.53,9.81,2.45,10.82,1.87.33-.19.47-1.81,1.23-2.27,3.9-2.41,8.01-2.96,10.95-7.59ZM386.75,33.33c-8.68,2.01-15.15,18.59-2.75,22.32,18.15,5.47,22.56-26.9,2.75-22.32ZM169.8,60.32c-13.62,1.9-7.37,27.96,4.52,21.58,7.96-4.27,5.63-23-4.52-21.58ZM577.91,173.26c-5.27-3.27-13.39,12.12-12.87,16.28,1.15,9.28,11.18,2.42,13.25-2.67.97-2.39,1.36-12.53-.37-13.61ZM253.04,223.12c-1.15-.18-1.39.22-2,1-.16.21.16.8,0,1-8.08,1.37-10.88,12.23-9.76,19.26,2.78,17.43,37.74,14.84,39.75-2.76,1.15-10.05-.49-9.49-6-15.5-1.95-2.14-4.65-6.43-7.52-6.98-6.47-1.24-9.99-.25-14.48,3.98ZM390.04,231.12c-6.36-1.17-10.73,5.94-12.32,11.19-2.9,9.57-1.62,17.26,8.32,21.32s23.68,1.74,28-9.5c3.25-8.46,3.51-20.93-5.45-26.05-4.78-2.73-14.3-.25-18.55,3.05ZM493.04,278.12c-1.77.41-3.26-.27-5.39,1.11-8.29,5.34-10.03,26.8.11,31.67,7.03,3.37,20.84,3.68,21.28-6.78,5.6-6.78,4.99-19.37-2.04-24.46-5.44-3.94-8.01-2.92-13.96-1.54Z"/>
  <path class="cls-1" d="M662.04,471.12c1.31,6.54,7.03,11.84,7.01,12.58-.17,5.71.22,1.94.91,4.18,3.63,11.75-1.69,45.45-6.43,57.23-1.08,2.69-3.88,5.45-4.72,8.28-1.5,5.07-1.25,19.43-.76,25.2.78,9.28,5.89,17.73,4.87,26.91-.86,7.71-8.19,15.94-8.71,20.37s1.87,12.12,1.91,16.74c.14,15.93-10.59,12.99-18.52,22.56-1.11,1.34-1.75,4.13-2.57,4.93-5.73.59-12.64-1.28-18,1-9.74-.8-27.75-.26-36.02-3.48-5.41-2.11-10.92-13.32-13.49-13.57-6.71-.67-6.85,8.9-12.49,11.06-4.91.38-10.87-1.32-15,2-.66.06-1.34-.04-2,0-5.22-2.15-11.84-.58-17.48-1.02-3.51-.27-7.93-1.33-11.52-1.98-7.01-1.28-15.31-5.04-22-3.55-3.36.75-19.97,8.47-22.36,10.69-4.23,3.92-3.94,12.65-9.09,12.68-6.24.04-20.83-3.24-25.59-7.29-2.16-1.84-3.41-5.38-5.71-6.29-11.36-4.55-36.7-6.01-48.51-2.99-7.61,1.95-13.61,8.91-21.75,10.34-9.43,1.66-34.14-4.7-41.04-11.06-3.69-3.4-2.6-6.92-9.42-6.56-2.59.14-5.02,1.58-7.34,1.82-18.72,1.98-22.16,8.68-38.39,13.53-6.21,1.85-14.13,1.72-20.09,4.91-6.84,3.66-3.72,7.35-15.27,6.8-14.6-.69-15.63-8.37-24.53-15.46-11.23-8.95-22.55-10.84-35.94-5.07-5.9,2.54-5.14,8.25-13.29,7.1-4.88-.69-16.37-3.03-20.98-4.83-10.71-4.17-14.6-16.06-22.22-23.78-10.18-10.33-11.16,8.43-14.48,10.58-2.33,1.5-3.64-1.38-5.6-1.6-5.63-.63-8.25,13.59-14.38,15.59-8.24,2.69-28.69,2.24-37.09-.02-8.81-2.37-7.26-6.09-9.74-12.26-2.81-7-9.3-15.2-12.43-21.57-1.65-3.37-1.76-7.31-3.31-10.69-4.57-9.97-9.48-13.01-8.36-25.4.6-6.64,4.75-16.46,4.93-22.15.41-13.23-3.38-25.11.92-39,1.59-5.14,7.96-14.61,8.07-19.01.08-2.96-1.47-4.8-1.68-7.14-.19-2.07.77-4.53.36-6.56-1.11-5.53-3.8-7.59-3.73-14.76,6.26,7.7,7.91,18.49,18,23-.11.98.08,2.01,0,3-.27,3.2-1.18,6.26-1.07,9.51.26,7.19,4.13,17.55,3.12,25.05-.42,3.1-2.6,4.27-3.83,7.16-6.41,15.02,2.37,21.03,3.79,33.77,1.2,10.81-6.64,38.24,1.46,45.54,1.39,1.25,6.36,3.14,8.33,3.67,7.42,2,15.15,1.24,22.21,1.29,1.19,0,1.35.18,3,0,.12-.01.85,1.12,2.21.84s3.54-1.56,4.72-2.42c1.04-.75,7.83-7.78,8.3-8.71,1.64-3.27,2.7-15.02,2.82-19.18.21-7.79-3.93-15.02,5.04-19.96,3.35-1.84,6.6-1.05,9.67-2.33,3.33-1.39,6.56-7.57,11.24-8.25-.47,11.68,6.55,21.83,11.82,31.69,1.19,2.23,3.25,4,4.56,6.44,5.97,11.12,4.32,22.59,20.64,21.86,6.87-.31,9.32-1.41,17,0,10.41,1.91,10.69,4.07,22.22.72,8.97-2.61,15.11-7.02,22.29-12.69,7.58,17.44,20.47,28.14,39.49,17.98,1.12.02,2.75-.9,4-1,4.99-.39,10.08.46,14.26-.24,6.07-1.01,16-9.75,17.29-15.73.72-3.34-2.3-8.32-1.54-12.03,7.69,4.64,9.32,14.98,16.66,19.83,5.89,3.89,16.27,4.78,23.33,5.17,2.63.14,5.36.03,8,0,13.09-.13,37.41-.91,43-15,2.93-.75,2.49.65,3.65,1.84,4.02,4.13,8.07,11.73,9.37,17.15l5-6.5c1.26-.8,2.67-.37,3.99-.49,4.96-.46,10.87.04,16,0,4.2,1.83,8.85.47,13,1,2.05.26,3.54,2.29,5.43,2.06.89-.11.47-2.01.57-2.06.39-.24,7.22-.73,9-1,1.61,2.37,12.16.16,13,1s-1.93,8.13,1.99,7c-.27-1.94.48-4.6.02-6.34-.29-1.11-1.89-.54-2.02-.66s.45-1.73-.66-2.02c-1.46-.38-7.43-.18-9.34.02,3.74-.75,13.39-11.99,15.49-12.01.33,0,1.94,4.12,3.46,5.56,7.09,6.71,19.28,4.69,21.05,6.45.13.13-.46,1.33.69,2,3.06,1.78,4.7.15,6.31,0,1.79-.16,5.84-1.09,6.45-1.05s.56,2.07,1,2.05c3.2-.22,16.59-8.82,18.56-7.57,1.01.64,1.47,3.32,2.98,4.08,2.11,1.06,4.45.06,6.01.49.82.22,1.82.68,3,1,2.26.61,5.12,2.59,7.56,2.94,15.84,2.27,23.09-4.29,25.18-19.7.74-5.42-.73-12.87.5-17.5s10.34-15.49,12.94-22.06c2.85-7.18,4.49-15.46,7.83-22.68,8.42,9.4,3.63,19.94,2.95,30.46-.47,7.27-.47,19.98,2.53,26.55,1.48,3.26,5.18,5.15,5.99,7.01,1.31,3.03.71,8.09,3.62,11.38,1.29,1.46,7.18,3.37,9.37,3.62,4.06.48,17.61-.51,21.98-1.12,1.69-.23,2.38-.46,3.6-1.65.76-.74,7.21-15.21,8.15-17.58,5.35-13.48,9.4-21.23.25-34.62-1.34-1.96-5.38-4.39-5.42-6.54l12.02-37.08c-3.33-22.02-4.05-39.41-2.04-61.45,7.66-1.51,14.3-5.8,20-11ZM472.04,653.12h-20v2h20v-2Z"/>
  <path class="cls-1" d="M9.04,491.12c.04-4.77,1.71-9.08,1.98-13.52,1.15-18.41-.43-37.33,14.03-51.97,3.99-4.04,9.87-5.06,13.48-8.52,2.54-2.44,4.15-6.72,6.53-9.47,4.65-5.37,10.7-12.86,17.97-13.52,2.07,2.18-5.7,12.93-5,16.48,1.09,5.51,6.26-7.47,8-5.48l-.99,8.99c3.42,3.41,16.2-17.27,18.02-19.47,5.44-6.59,15.26-17.03,22.05-21.95,5.16-3.75,8.94-3.82,13.96-9.09.97-1.02.9-4.04,2.98-1.97.87,7.09-3.04,16.09-7.18,21.83-3.26,4.52-8.63,8.51-11.38,13.62-1.41,2.61-6.37,19.26-5.44,20.05,2.52,2.13,5.13-5.11,6.59-6.9,4.01-4.97,8-6.13,13.4-9.09-1.22,5.36-5.57,10.37-2.98,15.99,3.63,2.46,17.7-17.61,22.48-19,.97-.02.9,14.06,3.01,13.99,2.93-7.54,10.85-5.37,15.73-7.99,1.55-.83,1.21-3.54,3.76-2.98l-.98,9,2.97-2c.84,4.1,4.95,7.67,8.95,8.57,11.58,2.61,10.92-7.94,16.07-14.57.59-.76,2.21-1.13,2-3,4.83-.73,9.88-7.57,13.52-8.99,3.17-1.24-.05,5.82,2.47,5.98,3.86-9.47,13.12-18.01,23.01-20.99-3.78,9.39-8.81,18.65-11,28.49-.11.87,1.87.61,1.99.5.91-.77,6.96-13.63,8.99-16.52,7.49-10.64,17.29-14,29.02-18.47.89,6.11-15.7,31.86-12.99,34.99l4.98-3c.61,4.57-2.27,6.46-2.99,11-.41,2.57-.13,5.38,0,8,.11,2.32-.09,4.68,0,7,3.49.68,5.23-5.31,5.99-6,.81-.73,8.36-5.83,9.29-6.21,1.25-.52,2.29-1.06,3.71-.78-.37,12.59.5,11.03,5.53,1.98.54-.97.23-2.58.47-2.99,4.04-6.95,12.65-15.45,18.99-20.51,5.91-4.72,12.43-8.08,18.52-12.48,1.73,5.42-3.97,9.88-5.31,14.69-.41,1.47-.77,2.69,1.3,2.3,6.66-12.71,14.29-17.43,28-21.01l-13.48,37.01c2.2,2.26,7.65-10.21,9.51-10.99,1.68-.7,1.61.94,1.95,1.99.68,2.06,2.36,11.06,3.59,11.98.36.27,8.54-1.25,8.93-1.48,1.85-1.07,3.47-7.03,6.02-8.98,2.17-1.66,8.73-3.14,11.55-3.47,1.48-.18,1.72-.19,1.45,1.45-.52,3.11-2.72,5.75-4.01,8.5-1.02,2.16-1.87,4.4-2.99,6.51,4.84.9,10.52-1.58,13.45-5.59.69-.95.31-2.51.54-2.92.71-1.23,2.1-1.56,3.06-4.44,1.04-3.12.92-6.43,1.95-9.55,1.79.73,1.1,5.87,1.04,7.55-.05,1.41-1.26,5.26-1.05,5.44,2.23,1.95,6.7-6.07,9.07-7.42,1.38-.79,10.96-3.68,10.94-2.06l-1.52,7.48c3.27-3.42,5.81-11.03,8.98-14.02,1.59-1.51,15.88-9.31,18.05-9.96,3.65-1.09-1,4.63-1.4,5.6-2.11,5.11-3.97,10.28-6.12,15.38-1.29,3.07-6.49,11.65-5.91,14.42.31,1.47,3.28,2.12,3.9,1.58.53-.46,3.96-15.56,5.01-3,.01.13-1.01.29-.29,2.63,2.87,9.36,8.11-.61,12.29-3.63,2.81-2.03,8.46-5.3,11.63-6.87,4.7-2.33,15.19-6.96,19.98-8.03,4.11-.92-1.64,6.21-2.05,7-.55,1.06-.33,2.44-.56,2.9-.49.96-4.32,3.79-2.49,6.01l5.49-6.01c4.65-.72,9.85-8.17,16.99-6.51l27.66-24.34c6.23-2.16-2.11,9.24.35,11.85-2.32,3.97-5.11,8.37-6.88,12.62-.64,1.55-3.61,8.96.38,6.38,3.22-2.08,5.97-9.29,9.99-10.02,3.23-.59.36,5.6,2.01,7.01,10.37-10.65,17.22-25.02,32.29-29.71,5.36-1.67,11.3-1.47,16.21-4.28-4.73,12.4-12.11,24.16-11.98,38,3.2-2.24,5.26-5.83,7.69-8.74.63-.75-.02-1.87,2.29-1.26,0,2.07-.19,4.19.26,6.24.29,1.3,2.61,9.17,2.94,9.55,2.88,3.39,9.77-.81,10.31-.77,2.22.13.16,5.1,2.92,4.92,9.08-.58,5.52-3.78,6.66-9.36.98-4.8,3.11-6.39,4.81-10.19,2.01-4.48,5.17-13.69,9.08-16.92.7-.58,1.76-1.05,2.03.03-.69,3.64-2,8.35-2.06,11.96-.03,2.06-.57,2.93,2.03,2.53.95-6.48,7.55-10.87,12.43-14.63,5.46-4.2,12.26-6.97,17.5-10.95,3.6-2.73,5.64-6.63,9.07-9.42-1.88,14.28-13.75,25.22-13.98,40,4.25-5.37,7.61-9.84,13.98-13,.85,1.14-5.85,21.39.51,23.9,3.93-5.11,13.81-5.24,17.79-8.84,3.09-2.8,1.68-11.99,9.72-11.05-2.84,7.4-7.69,14.56-10.88,21.61-1.02,2.25-5.93,13.74-5.94,15.08,0,.86,2.98,5.78,4.29,5.28,3.76-3.2,7.04-8.69,12.52-8.97,2.16,2.32-5.65,16.55-5.74,19.67-.05,1.61,3.51,8.43,4.26,11.32,1,3.86.82,7.64,1.49,11.01-5.7,5.2-12.34,9.49-20,11,.54-5.96,1.89-12.32.94-18.44-.6-3.84-4.22-6.52-4.77-9.3s.95-5.04.89-7.73c-.21-9.73-9.35-11.44-13.48-17.6-5.66-8.46.15-11.46-14.56-5.94v-11.99c-.72-.82-5.22,2.74-6,3.5-1.38,1.37-13.87,18.6-14.24,19.76-3.02,9.35-1.73,26.17-7.77,33.73-.1.13-1.34-.32-1.82.15-2.11,2.12-.94,16.96-1.31,21.22-.62,7.16-2.63,14.28-5.87,20.63-2.98-10.28-7.77-30.33-8.04-40.55-.19-7.11,6.12-10.32.05-17.96-2.03-2.56-12.73-12.47-15.51-14.54-1.38-1.03-3.39-.81-3.51-.95-.2-.24.46-2.23-.15-2.79-.64-.61-6.34-1.04-7.85-1.21-.14-2.08-1.03-13.48-1.44-14.06-.89-1.28-3.59-1.01-5.08-1.01-8.82.04-18.09,8.64-23.49,15.07-3.24.1-6.98-.02-6,4-12.89-.6-7.35-7.71-10.03-9.98-2.05-1.73-5.88,3.75-8.48.99-3.27-3.47.79-12.91-1-13.03-4.36.71-9.08,2.91-12.79,5.21-7.32,4.54-8.75,9.95-17.98,13.02-11.92,3.96-6.99-1.39-8.72-3.22-2.71-2.86-19.67,10.23-23.73,10.84-2.97.44-7.13-3.37-10.15-4.3-2.38-.74-1.42.22-4.91-1.43-.98-.46-2.37-.15-3.74-1.04-5.54-3.62-4.29-12.07-4.97-12.07-4.68.23-9.92,6.88-13,8.01-.8.29-.26-2.03-1.01-2.07-5.73-.29-12.37,13.27-20.93,13.1-4.16-.09-16.89-3.43-21.11-4.98-3.61-1.33-11.15-6.82-13.02-7.06-2.79-.36-8.83,2.51-10.41,1.55-3.73-2.24-2.51-13.2-12-8.55-.75-4.09.57-6.47,1.98-10-3.73,2-7.91.13-11.73,1.76-4.42,1.88-7.97,9.65-10.68,11.32-1.91,1.18-4.12.75-6.15,1.85-5.77,3.12-11.87,11.07-18.38,12.61-8.35-.79-15.13,5.48-21.58-2.5-3.81-4.71-1-7.34-9.45-4.04.06-2.12-.23-4.3.07-6.42s3.99-8.78.42-8.6c-3.23.16-9.3,3.09-12.49,4.53-6.53,2.96-12.95,11.15-13.02-2.52-4.93-.32-8.06,4.63-11.66,6.84-2.87,1.77-6.54,2.8-9.27,4.73-3.87,2.73-9.27,9.75-14.56,10.46-2.79.37-.76-2.92-2.01-5.02-1.61-2.72-8-3.28-5.5-11-3.6-.09-6.74,1.93-9.5,3.99l-.5-4c-4.92-.29-8.05,4.56-11.64,6.87-2.01,1.29-4.45,1.45-6.87,3.13-2.89,2.01-7.4,7.25-7.49,11.01-1.23.42-1.73,1.86-2,2-.38.19-1.41-.13-2,0-.39-1.42-3.87-11.25-4.26-11.74-1.49-1.86-5.57-1.86-7.74-1.27,1.26-2.18,2.39-4.34,1.99-6.99-4.92,3.1-10.48,4.4-15.68,6.81-1.97.91-3.77,4.23-4.29.69-.23-1.53.21-7.16-1.68-7.57s-20,3.32-22.58,4.33c-6.75,2.63-7.49,9.39-15.61.56,1.49-6.12-.33-4.86-4.45-2.62-10.07,5.48-16.12,10.93-18.46,22.54-2.09,10.37-3.18,27.08-3.32,37.77-.06,4.36,1.9,8.63,2.1,12.99.19.49.51.56.98.51.8,3.56-.66,7.01-1,10-10.09-4.51-11.74-15.3-18-23Z"/>
  <path class="cls-1" d="M286.04,271.12c.74,1.65,1.66,2.64,3.52,2.98,5.29.97,17.08.68,23.48,1.02.66.04,1.34-.03,2,0,1.48.69,7.34,2,8.5,2h20c7.86,0,17.32,1.45,25.5,2,.66.04,1.34-.03,2,0,10.93,3.17,22.73,2.79,34,4s15.95,3.28,26,6l33.63,17.87,4.37.13c14.74,9.87,33.59,20.67,42.17,36.33,2.61,4.77,4.21,9.93,6.83,14.67-5.1,16.64-5.44,19.32-14,34-2.46-2.61,5.88-14.01-.35-11.85l-27.66,24.34c-7.14-1.65-12.33,5.8-16.99,6.51-.94.14-2.03-.1-3,0,.24-.46.01-1.84.56-2.9.41-.79,6.16-7.92,2.05-7-4.79,1.07-15.28,5.7-19.98,8.03-3.17,1.57-8.82,4.85-11.63,6.87l-12,1c-1.05-12.56-4.48,2.54-5.01,3-.61.54-3.59-.11-3.9-1.58-.58-2.77,4.61-11.36,5.91-14.42,12.91-2.78,26.17-4.37,39.01-7.49,10.43-2.53,29.98-7.51,39.27-11.73,8.49-3.85,12.86-8.01,15.72-16.78.36-1.1,2.21-6.67,1.99-6.97-1.08.13-2.26-.94-2.99-1.03-5.84-14.97-22.38-27.41-35.69-35.81-41.53-26.21-120.66-31.11-169.82-34.18-2.96-.19-5.96.11-8.92-.03-3,19.52-1.83,39.75-4.7,59.39-.7,4.77-.34,9.73-4.87,11.63-.97-2.52-4.82-10.31-7-11-.79-5.64,1.59-11.13,1.98-16.52.86-11.7,1.26-20.53,2.78-32.22.63-4.81,3.15-29.39,5.25-31.28.77.07,1.33.78,1.98,1.01Z"/>
  <path class="cls-1" d="M217.04,293.12l-32.27,4.23c-25.27,7.09-48.11,13.78-47.73,44.77.06,4.81.4,2.88,1,5,1.65,5.84,3.08,12.17,7,17-.52.48-6.29,9.07-6.53,9.97-.63,2.38-.57,4.62-.47,7.03-3.99-14.64-12.83-27.99-14.04-43.46-.44-5.68.68-10.44,1.04-15.54,2.13.03,2.74-1.25,3.86-2.65,6.66-8.34,13.82-16.12,21.89-22.99.12-.83-1.04-2.06-.75-2.35,1.95-1.97,1.45,2.21,3.38,1.93,3.19-.45,1.93-1.88,2.62-3.94,2.46.92,6.59-.67,9.01-1.49,14.46-4.9,33.11-11.24,47.86-14.19,1.78-.36,3.72.43,3.13-2.31,3.08,2.89,1.19,14.45,1,19Z"/>
  <path class="cls-1" d="M171.04,388.12c.15.08-.59.55,2,2,.28.16.71,1.36,1.61,1.85,4.46,2.42,10.36,3.83,14.39,7.15.21,1.87-1.41,2.24-2,3-15.46-8.17-33.11-11.62-48-21,1.01-.24,5.15-1.91,5.99-2.51.49-.34,4.56-5.73,5.01-6.49,4.21,6.39,10.64,11.35,17.08,15.46,1.38.88,3.47.3,3.92.54Z"/>
  <path class="cls-1" d="M119.04,202.12c.26-.22,1.63-.22,2.5-.96,4.47-3.8,8.95-10.15,15.5-10.04-4.18,8.65-7.83,18.12-13.99,25.51l4.99,1.49-3,8.99c-.26-.31-4.62.44-5.78-4.71-.94-4.18.95-6.82.75-9.74-.17-2.57-4.36-7.66-.97-10.55Z"/>
  <path class="cls-1" d="M86.04,167.12c4.29-8.32,8.71-5.48,11.3,2.2,2.67,7.9,1.98,11.39.71,19.17-.23,1.38-3.79.33-5.01.63-6.23-10.9-6.14-8.44-7-22ZM94.05,173.12c4.8-2.8.22-6.54-2.51-8.98-2.53,1.88-.72,1.61-.09,3.06.82,1.87,2.53,3.63,2.6,5.92Z"/>
  <path class="cls-1" d="M396.04,98.12c1.19-.9,2.05-2.56,2.75-2.97,7.42-4.45,15.7-7.5,24.25-9.02,1.08,1.04-10.87,18.03-12,19.99-3.42-.76-5.67-7.43-6.14-7.85-.85-.76-7.01.21-8.86-.15Z"/>
  <path class="cls-1" d="M633.03,341.12c-.63,4.95-.34,12.58-3.95,16.26-.99,1.01-8.16,4.64-9.06,4.26-3.84-1.63-3.61-7.59-1.86-10.9.28-.54,5.28-5.39,5.65-5.56,1.97-.88,6.75-.87,7.14-1.21.68-.58-1.14-3.8,2.07-2.86Z"/>
  <path class="cls-1" d="M226.04,164.12c3.39-2.79,6.23-7.86,12-6.99.73.55-6.74,14.65-7.01,16.49-.59,4.08,5.55-2.01,7.01-.49.72,4.68-2.87,8.04-3.99,11.99-10.83-3.19-.89-14.88-8-21Z"/>
  <path class="cls-1" d="M145.04,364.12c1.22-1.12,7.07-3.47,9-2.99.57.54-3.31,9.82-4,10.99-.45.76-4.52,6.15-5.01,6.49-.84.6-4.98,2.27-5.99,2.51-.31.07-.68-.06-1,0-.1-2.41-.16-4.65.47-7.03.24-.9,6.01-9.49,6.53-9.97Z"/>
  <path class="cls-1" d="M522.04,348.12l8-26c1.07,2.22,2.91,2.98,3.06,6.51.28,6.34-4.41,17.33-11.06,19.49Z"/>
  <path class="cls-1" d="M302.04,191.12c3.23-4.02,6.3-5.18,10.51-7.99.89.14-1.92,10.3,1.48,6.99.93-.9,4.54-11.27,6.57-13.94,1.12-1.47,6.03-6.39,6.47-2.55.39,3.46-1.41,6.27-2.03,9.49-2.94,4.63-7.06,5.19-10.95,7.59-.76.47-.9,2.08-1.23,2.27-1.01.58-9.1-1.33-10.82-1.87Z"/>
  <path class="cls-1" d="M557.04,228.12c1.86-.59,12.46-4.55,12.99-3.99,3.19,3.35-8.21,10.43-9.99,11.99-3.41-1.9-3.32-4.39-3-8Z"/>
  <path class="cls-1" d="M437.03,91.12c-.21,2.77.96,7.17-1.41,9.08-1.58,1.27-10.15,3.48-11.58,1.91-2.8-3.07,12.42-11.65,13-10.99Z"/>
  <path class="cls-1" d="M530.04,322.12l-8,26h-1c2.52-11.33,3.08-18.72,8-30,.44,1.2.48,2.92,1,4Z"/>
  <path class="cls-1" d="M126.04,310.12c-.88-1.71-1.64-5.07-2-7-1.25-6.72-1.74-13.87-5-20,.05-1.56.17-3.51,0-5,1.67.66,2.43,1.81,3.06,3.43,3.7,9.42,4.65,18.75,3.94,28.57Z"/>
  <path class="cls-1" d="M196.04,108.12c4.2-2.95,9.5-10.6,14.99-7.51-1.15,2.81-3.53,4.97-4.99,7.51-3.96,1.38-6.15,1.41-10,0Z"/>
  <path class="cls-1" d="M514.03,216.12c.56,6.62-3.59,10.18-9.99,9.99-1.25-5.72,4.75-10.14,9.99-9.99Z"/>
  <path class="cls-1" d="M124.04,303.12c-6.21-1.93-6.22-11.3-6.07-16.62.05-1.79,1.06-3.2,1.07-3.38,3.26,6.13,3.75,13.28,5,20Z"/>
  <path class="cls-1" d="M319.92,167.99c-4.65,2.68-4.77-6.52-1.61-9.6.95-.93,3.18-1.08,4.24-2.25,4.24,1.35-1.87,11.41-2.63,11.85Z"/>
  <path class="cls-1" d="M135.03,169.12c.74,3.75-5.37,12.2-9.03,9.55-4.78-3.46,5.36-10.05,9.03-9.55Z"/>
  <path class="cls-1" d="M195.04,107.12c-3.31-2.27-4.86-1.55-3-7,1.1-3.23,3.88-4.19,6.99-6,.94,5.08-3.07,8.36-3.99,13Z"/>
  <path class="cls-1" d="M582.04,225.11c.26-3.85,3.99-7.03,7.33-8.18,1.51-.52,1.2-1.18,2.66.71.74,3.46-6.79,8.32-9.99,7.48Z"/>
  <path class="cls-1" d="M209.29,82.36c1.32-1.25,5.93-1.6,7.74-3.24.27,2.7-1.99,8.2-4.7,8.88-3.18.8-5.47-3.34-3.05-5.64Z"/>
  <path class="cls-1" d="M538.04,667.12c-9.64.6-20.22,2.52-29-3,3.59.65,8.01,1.71,11.52,1.98,5.64.44,12.26-1.13,17.48,1.02Z"/>
  <path class="cls-1" d="M600.05,159.12c-2.92-7.65.84-6.4,5.98-9,.88,4.85-1.83,7.26-5.98,9Z"/>
  <path class="cls-1" d="M132.04,227.12c.57-1.58,9.17-8.81,10-7.99-.57,3.16-2.98,6.41-4,8.99.81-3.58-3.38-1.64-6-1Z"/>
  <path class="cls-1" d="M487.64,215.22c5.49-1.69,1.97,6.39-1.11,7.88-3.74-1.1-.94-7.25,1.11-7.88Z"/>
  <path class="cls-1" d="M242.03,139.12c.99.88-6.01,9.32-6.99,5.48-1.15-4.51,3.51-5.33,6.99-5.48Z"/>
  <path class="cls-1" d="M635.04,670.12c-.55.55-6.94,3.07-7.47,3.05s-.44-1.93-1.18-2.09c-1.24-.27-6.56.26-9.35.03,5.36-2.28,12.27-.41,18-1Z"/>
  <path class="cls-1" d="M420.03.12c.59,3.49-2.3,4.79-4.98,5.99-.45-4.39.02-6.7,4.98-5.99Z"/>
  <path class="cls-1" d="M206.04,40.11c-.43-1.93.99-2.38,2.09-3.4,7.18-6.69,4.93,4.87-2.09,3.4Z"/>
  <path class="cls-1" d="M555.04,665.12c-4.54,1.74-10.02,1.56-15,2,4.13-3.32,10.09-1.62,15-2Z"/>
  <path class="cls-1" d="M414.04,254.12c-7.23,4.77-25.73,7.57-29.32-2.18-2.92-7.92-1.46-15.55,5.32-20.82,4.25-3.31,13.77-5.79,18.55-3.05,8.96,5.12,8.7,17.59,5.45,26.05ZM402.7,230.26c-2.76.93-3.59,5.59.05,6.67,7.65,2.27,7.18-9.1-.05-6.67Z"/>
  <path class="cls-1" d="M275.04,226.12c.3,6.88,5.4,15.83-2.29,20.21-15.79,8.98-31.87-1.64-23.68-19.46.33-.73,1.5-1.15,1.98-1.74.16-.2-.16-.79,0-1,1.03.11,1.37-.41,2-1,4.48-4.23,8.01-5.21,14.48-3.98,2.87.55,5.57,4.84,7.52,6.98ZM271.9,229.99c3.53-5.62-10.62-12.98-8.86-2.42.75,4.51,5.53,4.07,8.86,2.42Z"/>
  <path class="cls-1" d="M274.04,350.12c2.18.69,6.03,8.48,7,11-1.25.53-1.39,1.12-3.43,1.11-8.38-.05-18.52-2.15-26.57-3.11-.24-.03-1.5-.9-3.4-1.07-4.72-.42-12.15-.39-16.6,1.07-6.51-.52-12.48-1.76-15.56-8.1-.72-1.47.57-1.8.56-1.9,5.16-.54,11.38,1.23,16-1l42,2Z"/>
  <path class="cls-1" d="M509.04,304.12c-5.91,7.16-20.47,5.53-21.91-4.59-.62-4.37-.64-17.76,4.91-18.41-4.67,15.9,9.67,7.14,5.88,1.12-1.84-.75-3.86-1.36-5.88-1.12.26-.9,1.09-1.85,1-3,5.96-1.38,8.52-2.41,13.96,1.54,7.02,5.09,7.64,17.68,2.04,24.46Z"/>
  <path class="cls-1" d="M402.04,281.12l-31-2c-.66-.03-1.34.04-2,0l-20.5-3h-21c-2.91,0-8.73-.81-12.5-1-.66-.03-1.34.04-2,0-6.54-4.49-17.91-.27-24.35-1.98-1.08-.29-.54-1.92-.65-2.02,1.04-1.69,2.71-1.86,4.48-2.02,10.25-.95,20.78,1.58,30.98,2.06,22.04,1.05,60.18-1.67,78.54,9.96Z"/>
  <path class="cls-1" d="M142.04,263.12c3.64-1.22,7.22-1.13,11.01-.98.18.61-1.02.91-1.01.98-2.92-.52-2.21,1.35-1.77,3.26.23,1.01,3.76,9.13,4.76,7.74v-8c3.37,4.31,3.15,20.06-2.68,21.81-1.85.55-7.16.42-9.31.19-12.8-1.37-11.26-21.56-1-25Z"/>
  <path class="cls-1" d="M251.04,225.12c-.48.6-1.64,1.02-1.98,1.74-8.19,17.82,7.89,28.44,23.68,19.46,7.69-4.38,2.6-13.32,2.29-20.21,5.5,6.02,7.15,5.45,6,15.5-2.01,17.6-36.98,20.18-39.75,2.76-1.12-7.03,1.68-17.89,9.76-19.26Z"/>
  <path class="cls-1" d="M386.75,33.33c19.81-4.58,15.4,27.8-2.75,22.32-12.39-3.74-5.93-20.32,2.75-22.32ZM396.03,44.11c.52-.51.27-6.65-2.48-5.99-3.85.92-.14,8.59,2.48,5.99Z"/>
  <path class="cls-1" d="M390.04,231.12c-6.78,5.27-8.24,12.9-5.32,20.82,3.59,9.75,22.09,6.95,29.32,2.18-4.32,11.24-17.6,13.74-28,9.5s-11.22-11.75-8.32-21.32c1.59-5.24,5.95-12.35,12.32-11.19Z"/>
  <path class="cls-1" d="M169.8,60.32c10.15-1.42,12.48,17.31,4.52,21.58-11.89,6.38-18.13-19.67-4.52-21.58ZM172.04,63.12c.1,1.55.76,8.55,3.48,7.99,3.48-.72-.13-8.73-3.48-7.99Z"/>
  <path class="cls-1" d="M493.04,278.12c.09,1.15-.74,2.1-1,3-5.55.64-5.53,14.04-4.91,18.41,1.44,10.12,16,11.75,21.91,4.59-.44,10.46-14.25,10.15-21.28,6.78-10.14-4.87-8.4-26.33-.11-31.67,2.13-1.37,3.62-.7,5.39-1.11Z"/>
  <path class="cls-1" d="M216.04,274.12c.59,2.75-1.36,1.96-3.13,2.31-14.75,2.95-33.4,9.29-47.86,14.19-2.42.82-6.54,2.42-9.01,1.49.1-.31-.11-.72,0-1,5.8-1.45,9.17-4.93,14.31-7.19,10.45-4.58,27.95-10,39.2-10.8,2.34-.16,4.74-.65,6.49.98Z"/>
  <path class="cls-1" d="M156.04,291.12c-5.19,1.3-10.2,2.64-13-3,2.15.23,7.46.36,9.31-.19,5.83-1.74,6.05-17.5,2.69-21.81-.62-.79-2.7-1.27-3-3-.01-.07,1.19-.37,1.01-.98-3.79-.15-7.37-.24-11.01.98,7.07-8.14,19.76-6.07,21,5.5,1.38,12.91-3.45,13.25-7,22.5Z"/>
  <path class="cls-1" d="M577.91,173.26c1.73,1.08,1.34,11.22.37,13.61-2.06,5.09-12.09,11.95-13.25,2.67-.52-4.16,7.6-19.55,12.87-16.28ZM571.04,184.11c2.01.32,2.94-1.23,3.75-2.74,4.32-8.1-5.56-4.6-3.75,2.74Z"/>
  <path class="cls-1" d="M469.04,307.12l-4.37-.13-33.63-17.87c19.77,5.35,21.1,6.68,38,18Z"/>
  <path class="cls-1" d="M402.04,281.12c.98.62,2.32.8,3,2-11.27-1.21-23.07-.83-34-4l31,2Z"/>
  <path class="cls-1" d="M232.04,348.12c-4.62,2.23-10.84.46-16,1-.05-.32.02-.67,0-1h16Z"/>
  <path class="cls-1" d="M288.04,271.12c.11.1-.43,1.74.65,2.02,6.44,1.71,17.81-2.51,24.35,1.98-6.4-.34-18.19-.06-23.48-1.02-1.87-.34-2.79-1.33-3.52-2.98.54.19,1.76-.22,2,0Z"/>
  <path class="cls-1" d="M253.04,223.12c-.63.59-.97,1.11-2,1,.61-.78.85-1.18,2-1Z"/>
  <path class="cls-1" d="M125.04,446.12c.1-3.76,4.6-8.99,7.49-11.01,2.42-1.69,4.86-1.84,6.87-3.13,3.58-2.31,6.71-7.16,11.64-6.87l.5,4c2.76-2.06,5.9-4.08,9.5-3.99-2.5,7.72,3.9,8.28,5.5,11,1.24,2.1-.78,5.39,2.01,5.02,5.28-.7,10.69-7.73,14.56-10.46,2.73-1.93,6.4-2.96,9.27-4.73,3.6-2.21,6.73-7.17,11.66-6.84.06,13.67,6.49,5.47,13.02,2.52,3.18-1.44,9.26-4.37,12.49-4.53,3.58-.18-.13,6.59-.42,8.6-.3,2.11-.02,4.3-.07,6.42,8.45-3.3,5.64-.67,9.45,4.04,6.45,7.98,13.23,1.71,21.58,2.5,6.52-1.54,12.61-9.49,18.38-12.61,2.03-1.1,4.24-.67,6.15-1.85,2.71-1.67,6.26-9.44,10.68-11.32,3.83-1.63,8,.24,11.73-1.76-1.41,3.53-2.74,5.91-1.98,10,9.49-4.66,8.28,6.31,12,8.55,1.59.95,7.62-1.91,10.41-1.55,1.87.24,9.41,5.73,13.02,7.06,4.22,1.55,16.96,4.89,21.11,4.98,8.55.18,15.19-13.39,20.93-13.1.75.04.21,2.36,1.01,2.07,3.08-1.13,8.32-7.79,13-8.01.68,0-.58,8.45,4.97,12.07,1.37.9,2.76.58,3.74,1.04,3.5,1.65,2.53.69,4.91,1.43,3.02.94,7.18,4.75,10.15,4.3,4.07-.61,21.03-13.7,23.73-10.84,1.73,1.82-3.2,7.18,8.72,3.22,9.24-3.07,10.66-8.47,17.98-13.02,3.71-2.3,8.43-4.5,12.79-5.21,1.79.12-2.27,9.56,1,13.03,2.6,2.75,6.43-2.73,8.48-.99,2.68,2.26-2.86,9.38,10.03,9.98.37.02,1.02.91,2.29.73,4.31-.62,3.5-4.47,3.71-4.73,5.4-6.43,14.66-15.03,23.49-15.07,1.49,0,4.18-.27,5.08,1.01.41.58,1.3,11.98,1.44,14.06.1,1.57-2.54,4.92.64,5.92,2.54.8,4.94-1.71,7.36-1.92.12.14,2.12-.07,3.51.95,2.78,2.06,13.48,11.98,15.51,14.54,6.06,7.64-.24,10.86-.05,17.96.27,10.22,5.06,30.27,8.04,40.55,1.31,4.52,1.34,10.69,5.99,14,4.03-8.88.91-17.86.93-26.5,0-2.07.88-3.73,1.08-5.5.81-7.02,1-12.7,1-20v-4c6.04-7.56,4.75-24.38,7.77-33.73.37-1.16,12.86-18.38,14.24-19.76.77-.77,5.27-4.32,5.99-3.5v11.99c14.73-5.52,8.91-2.52,14.57,5.94,4.13,6.16,13.27,7.87,13.48,17.6.06,2.69-1.47,4.85-.89,7.73s4.18,5.47,4.77,9.3c.95,6.12-.39,12.47-.94,18.44-2.01,22.04-1.3,39.43,2.04,61.45l-12.02,37.08c.04,2.15,4.08,4.58,5.42,6.54,9.15,13.4,5.1,21.15-.25,34.62-.94,2.36-7.38,16.83-8.15,17.58-1.22,1.19-1.91,1.41-3.6,1.65-4.37.61-17.92,1.59-21.98,1.12-2.19-.26-8.08-2.16-9.37-3.62-2.91-3.3-2.3-8.36-3.62-11.38-.81-1.86-4.51-3.75-5.99-7.01-3-6.57-3-19.28-2.53-26.55.68-10.52,5.47-21.06-2.95-30.46-3.34,7.22-4.99,15.49-7.83,22.68-2.6,6.57-11.76,17.6-12.94,22.06s.24,12.08-.5,17.5c-2.09,15.41-9.34,21.97-25.18,19.7-2.44-.35-5.3-2.32-7.56-2.94l4-3.99-7,2.99c-1.56-.43-3.9.57-6.01-.49-1.52-.76-1.97-3.44-2.98-4.08-1.97-1.25-15.35,7.35-18.56,7.57-.44.03-.39-2-1-2.05s-4.66.89-6.45,1.05c.25-5.56-3.44-4.26-7-2-1.77-1.76-13.96.26-21.05-6.45-1.52-1.44-3.13-5.56-3.46-5.56-2.1.02-11.75,11.26-15.49,12.01-1.2.13-2.23.88-3,1-1.78.27-8.61.76-9,1v-4c-2.49.06-7.56-.38-7,3-4.57-.42-8.15-.03-12,0-5.13.04-11.04-.46-16,0-10.01-3.23-13.59-12.14-20.5-19-.86,2.2-.6,4.74-1.5,7-5.59,14.09-29.91,14.87-43,15,.18-4.36-9.88-4.71-8,0-7.07-.38-17.44-1.28-23.33-5.17-7.34-4.85-8.96-15.2-16.66-19.83-.76,3.71,2.26,8.69,1.54,12.03-1.29,5.98-11.22,14.71-17.29,15.73-4.18.7-9.27-.14-14.26.24,3.63-2.29-.3-7.01-2.52-8.98-4.32-3.82-10.06,6.52-6.31,8.82.21.13,4.59,1.15,4.83,1.16-19.02,10.17-31.91-.54-39.49-17.98-7.18,5.67-13.32,10.09-22.29,12.69-11.52,3.35-11.81,1.2-22.22-.72-3.64-3.16-13.44-3.13-17,0-16.32.73-14.67-10.74-20.64-21.86-1.31-2.44-3.37-4.22-4.56-6.44-5.26-9.86-12.28-20.01-11.82-31.69-4.69.67-7.91,6.86-11.24,8.25-3.07,1.28-6.32.49-9.67,2.33-8.97,4.94-4.83,12.17-5.04,19.96-.11,4.16-1.18,15.91-2.82,19.18-.46.92-7.25,7.95-8.3,8.71-1.18.85-3.36,2.14-4.72,2.42s-2.09-.86-2.21-.84c1.91-2.19,3.27-4.25-.49-5-1.72,1.27-2.79,2.76-2.51,5-7.06-.05-14.79.71-22.21-1.29-1.96-.53-6.94-2.42-8.33-3.67-8.1-7.3-.26-34.73-1.46-45.54-1.42-12.75-10.2-18.76-3.79-33.77,1.23-2.89,3.42-4.06,3.83-7.16,1.01-7.5-2.86-17.86-3.12-25.05-.12-3.25.79-6.31,1.07-9.51,3.64-3.41,1.46-9.57,1.98-14.01-.47.12-.83,1-.98,1.01-.48.05-.79-.02-.98-.51-.2-4.35-2.16-8.62-2.1-12.99.14-10.69,1.23-27.39,3.32-37.77,2.34-11.61,8.39-17.06,18.46-22.54,4.12-2.24,5.94-3.5,4.45,2.62,8.12,8.83,8.86,2.06,15.61-.56,2.58-1,20.77-4.72,22.58-4.33s1.45,6.04,1.68,7.57c.52,3.54,2.31.22,4.29-.69,5.2-2.41,10.76-3.71,15.68-6.81.4,2.65-.73,4.81-1.99,6.99,2.17-.59,6.26-.59,7.74,1.27.39.49,3.86,10.32,4.26,11.74,2.93,10.55-.93,22.37,2,33,.2,29.59,2.58,64.79,0,94-.99,11.25-2.16,23.87,0,35,1.14,5.89,6.66,18.67,12.74,20.76,2,.69,12.37,2.83,14.81,3.19,9.06,1.32,31.25.03,39.69-3.21,7.9-3.04,13.27-14.35,14.66-22.34,1.09-6.26-.16-14.2,1.1-19.4s2.02-11.85,0-17c-.11-3.78-.93-8.05-1-11,1.66-1.04,1-3.79,1.02-5.49.08-7.56.74-16.29-1.02-23.51.13-4.6.62-8.65,1-13,.68-7.75.85-10.19,0-18-1.54-14.08.42-28.35.04-42.55-.1-3.75-1.43-7.71-1.47-11.52-1.27-1.87-29.77-2.85-31.46-.83l-1.16,21.35c.96,33.34-.15,65.94,1.04,99.06.2,5.57.89,25.81-1.53,29.45-1.59,2.38-8.05,2.74-10.47,1.55-2.14-1.05-1.55-2.94-1.99-4.51l-1-54c-.05-20.48.07-40.49,0-61,1.66-1.04,1-3.8,1.02-5.49.06-5.39.95-20.77-1.02-24.51-1.86-3.55-6.57-1.58-10.4-2.11-7.85-1.07-14.3-2.73-22.6.11ZM331.04,438.12c1.94-9.68-9.23-6.06-5.57-.93.99,1.39,3.99.89,5.57.93ZM101.64,434.17c-2.13.38-5.59,6.33-.9,7.76,8.54,2.61,4.1-8.33.9-7.76ZM434.04,436.13c-.94,1.09,1,4.43,2.71,4.85,5.05,1.25,7.1-6.21,3.77-6.86-.33-.07-6.26,1.76-6.48,2.01ZM224.04,437.13c-3.09,3.59,6.1,5.46,7,1.48.81-3.59-6.67-1.86-7-1.48ZM75.03,437.12l-4.99,2.48,3.98,1.51,1-3.99ZM159.03,439.13c-2.67-.16-6.23-.51-5.99,2.99,2.67.16,6.23.51,5.99-2.99ZM78.03,445.12c-.9-1.03-8.11,3.6-9.64,3.75-2.04.21-4.27-1.9-6.8-1.73-7.43.51-8.47,2.06-18.08.96-4.22-.48-3.69-.99-4.07-1.05-9.36-1.53-6.04,12.64-6.36,18.61-2.38,44.12-1.32,93.54,0,137.92.13,4.32-1.19,29.9,1.62,30.58,6.64-.5,13.16-1.43,19.87-1.08,4.68.25,8.83,3.4,13.01.08l.87-61.09c1.12-1.5,20.36-1.54,24.07-1.97,4.11-.48,15.4-4.52,18.18-7.32,3.36-3.39,6.03-22.55,6.38-28.11.98-15.2.7-35.75,0-51.09-.21-4.52-.64-13.5-1.53-17.47-1.55-6.89-14.17-17.13-20.97-18.03-5.27-.7-11.3.49-16.54,1.05v-4.01ZM283.04,468.12c0-5.11.83-14.03,0-18.5-.21-1.14-.35-2.02-1.64-2.36-6.78-.03-13.07-1.4-19.91-1.18-10.17.33-18.66,3.99-29.13-.58-4.86,1-15.27-1.59-18.85,1.6-3.83,3.41-1.2,5.12-1.4,8.52-.32,5.36-.16,7.87-.04,12.96.08,3.25-.75,10.55-.1,12.91,1,3.64,13.02.42,16.07,3.11,4.95,4.36-.57,41.3-.06,50.06,1.7,29.1.76,54.28.97,82.97.04,4.83,1.81,10.17,1.25,15.32,5.6,4.55,9.07.2,13.36.07,3.07-.1,4.22,1.89,5.92,1.99,3.67.21,10.19-1.99,14.56-.89-.92-5.87.96-11.9,1.04-17.46.36-23.26-1.54-46.57.95-69.55.88-8.11.66-10.97,0-19-.17-2.01-.85-4.24-1-7,1.67-5.73,1.68-14.19,0-20,0-6.16-.94-11.88,0-18,.72-.76,15.42.85,18,0,1.59-.52,1.65-12.97,0-15ZM370.04,487.12c-.46-15.06-.45-35.59-16.95-41.55-17.82,2-40.85-5.83-55.06,7.03-2.41,2.18-3.99,4.86-5.16,7.84-5,12.75-4.6,51.05.47,63.88.58,1.46,12.63,17.12,14.25,18.73,2.28,2.27,5.84,3.15,7.95,5.07,15.85,14.36,21.95,21.52,19.5,44.52-1.01,9.51-14,5.54-14,.98v-29c0-3.75-6.89.45-7.49.47-1.32.05-4.02-1.81-6.95-2.02-2.48-.18-17.55-.6-17.55,1.55v40c0,1.91,1.8,9.18,2.5,11.5,2.19,7.3,6.38,12.67,13.7,15.3,1.96.71,9.42,2.63,11.33,2.74,3.71.23,6.13-1.81,8.15-1.84,1.45-.02,2.44,1.6,3.87,1.74,5.13.5,18.45-.34,23.51-1.4,15-3.13,16.99-20.75,17.93-33.07.85-11.05.86-38.66-4.16-47.82-9.05-16.49-38.09-34.42-41.72-48.28-1.26-4.8-2.88-19.25,2.12-21.66,2.19-1.06,8.44-.94,9.86.93,4.08,5.36.13,25.03,2.86,26.91,5.68-.43,12.45,2.41,17.61,2.46,4.42.04,8.77-2.84,13.45-2.03,1.35-.1.98-1.44,1.04-2.45.41-6.21.44-14.6-1.04-20.55ZM376.04,517.12c-.05.35-.89,1.45-1.07,3.4-.42,4.72-.39,12.15,1.07,16.6-.15,8.09-.02,17.34,0,26-1.67,5.01-1.68,12.92,0,18,0,9.29-.48,16.52,1.28,26.22,1.93,10.64,4.75,18.53,15.75,22.25,3.74,1.27,7.08.92,10.24,1.76,9.95,2.65,4.8,4.03,16.73,1.77,6.63-.47,13.78,1.11,20-1,3.82-1.29,10.67-7.16,13.01-10.49,8.28-11.81,2.45-28.27,7.02-41.97l-3.09-27.48c-3.58.2-6.9-.97-10.44-1.16-2.26-.12-4.38,1.03-6.06.97-3.36-.12-11.17-4.95-14.45,1.13-.83,1.54-.89,1.42-1.07,3.4-.82,9.27-.07,21.52.05,31.12.02,1.69-.64,4.45,1.02,5.49-.98,4.19-14.57,7.24-15.05-1.53-.36-6.57.29-14.05,1.05-20.47.81-6.87.76-8.09,0-15-2.24-20.42-1.25-42.79.1-63.5.22-3.3-2.15-7.01.92-9.99,2.55-2.47,10-2.04,12.06.91.69.99,1.83,8.63,1.86,10.21.05,2.49-.95,4.39-.94,8.36,0,5.13-.82,11.47,1,16,.15.38-.31,1.28.1,1.86,10.57-1.55,21.36-.09,31.9-.86v-45.5c0-2.65-4.17-15.82-5.77-18.23-1.25-1.89-5.15-4.89-7.22-5.78-4.49-1.93-16.6-4.42-21.47-4.53-8.71-.19-19.99.15-28.28,1.81-1.27.25-2.6-.74-4.21-.26-3.77,1.14-13.04,14.08-13.82,18.22-1.03,5.53-3.03,19.32-3.28,24.74-.46,9.84,2.56,16.64,1.05,27.52ZM468.04,449.12c-.98.99-.91.96-1.06,2.4-.79,7.47-.06,18.26.04,26.12.02,1.69-.64,4.45,1.02,5.49-.03,11.18.02,22.61,0,34-1.69,4.26-1.66,11.95,0,16-.16,3.25-2,7.78-2,9.5v16c0,2.62,1.87,8.25,2,11.5v63c6.06,2.7,12.41.14,18.5,2,2.67-1.67,15.5.03,15.5-2.5v-76.5c4.96-.37,10.31.99,14.99-1,.69,3.61-.94,7.06-1.03,10.45-.41,15.9.9,31.91,2.04,47.55-2.28,6.4-.41,14.26-.99,21,.77.26.86-.99.99-1,2.81-.26,7.36,1.74,10.5,1.79,1.53.03,3.21-.84,4.95-.83,3.07.01,16.93.8,18.1-.89,1.82-2.61-.38-54.85.39-63.63.16-1.81.99-3.65,1.04-4.43,2.47-37.79.19-76.49,1.06-114.6.14-1.31-.18-1.63-1.06-2.4-3.37-2.95-10.25.49-13.42.01-1.36-.21-2.5-1.69-3.36-1.77-3.28-.3-11.34-1.34-13.68-1.21-.99.06-3.91,1.32-4.54,1.96-1.78,1.8-1.06,14.88-1.02,18.51.02,1.69-.64,4.45,1.02,5.49-.22,7.89-.2,11.99,0,20-1.66,1.04-1,3.8-1.02,5.49-.07,6.2-.76,13.69,1.02,19.51-.03.66.05,1.34,0,2l-13.41.02-.6-2.02c1.66-1.04,1-3.8,1.02-5.49.21-19.7-.23-39.41.04-59.11.17-1.35-.22-1.63-1.06-2.4-.48-.44-1.93-.46-2.36-.9-1.6-1.64.61-4.96-6.9-2.86-5.58,1.56-8.49,2.75-15.19,2.81-3.56.03-7.87-2.78-11.55.96ZM601.04,580.12h23c1.06-9.81,1.22-19.71,2.01-29.49,2.3-28.35,6.2-55.95,2.96-83.98-.3-2.58.59-14.99.04-15.54-7.24.89-14.51-.91-21.5-1.07-2.84-.07-10.43-.2-11.3,2.78-1.53,5.24.21,19.13-.21,25.78-.94,15.02-1.19,25.56.01,41,1.3,16.64,2.45,36.13,4.94,52.06.42,2.69-.14,5.71.05,8.45ZM629.04,589.12c-3.77-1.59-7.07.31-10.49.08-2.78-.18-4.66-2.09-8-2.18-2.09-.06-14.51,1.32-14.51,2.6v39.5c0,.39,6.26,2.1,7.5,2.1,3.24,0,4.85-1.88,7.08-2.1s18.41,3.08,18.41-.5v-39.5ZM615.03,633.13c-1.73-1.83-8.53-1.26-7.99,2.98,1.09.36,10.26-.58,7.99-2.98ZM147.03,639.11c.97-3.5-8.27-4.68-8.99-3.99-.02,7.68,3.55,4.24,8.99,3.99Z"/>
  <path class="cls-1" d="M393.04,642.12c-1.32.12-2.73-.31-3.99.49l-5,6.5c-1.3-5.43-5.34-13.02-9.37-17.15-1.16-1.19-.72-2.59-3.65-1.84.9-2.26.63-4.79,1.5-7,6.91,6.86,10.49,15.76,20.5,19Z"/>
  <path class="cls-1" d="M250.04,648.12c-1.25.1-2.88,1.02-4,1-.25,0-4.62-1.03-4.83-1.16-3.74-2.3,2-12.64,6.31-8.82,2.22,1.97,6.15,6.69,2.52,8.98Z"/>
  <rect class="cls-1" x="452.04" y="653.12" width="20" height="2"/>
  <path class="cls-1" d="M421.04,642.12c-.56-3.39,4.51-2.95,7-3v4c-.09.06.33,1.96-.57,2.06-1.9.22-3.39-1.8-5.43-2.06-.09-.48-.54-.96-1-1Z"/>
  <path class="cls-1" d="M487.04,643.12c-1.62.15-3.25,1.78-6.31,0-1.15-.67-.55-1.87-.69-2,3.56-2.26,7.25-3.56,7,2Z"/>
  <path class="cls-1" d="M522.04,641.12l7-2.99-4,3.99c-1.18-.32-2.18-.78-3-1Z"/>
  <path class="cls-1" d="M440.04,641.12c1.91-.2,7.88-.4,9.34-.02,1.11.29.53,1.89.66,2.02s1.73-.45,2.02.66c.46,1.74-.3,4.4-.02,6.34-3.93,1.14-1.12-6.12-1.99-7s-11.39,1.37-13-1c.77-.12,1.8-.87,3-1Z"/>
  <path class="cls-1" d="M328.04,645.12c-2.64.03-5.37.14-8,0-1.88-4.71,8.18-4.36,8,0Z"/>
  <path class="cls-1" d="M64.04,643.12c-1.65.18-1.81,0-3,0-.27-2.23.8-3.72,2.51-5,3.76.74,2.4,2.81.49,5Z"/>
  <path class="cls-1" d="M421.04,642.12c.46.04.91.52,1,1-4.15-.53-8.8.83-13-1,3.85-.03,7.43-.42,12,0Z"/>
  <path class="cls-1" d="M27.04,517.12c.08-.99-.11-2.02,0-3,.34-2.99,1.8-6.44,1-10,.15-.02.51-.89.98-1.01-.52,4.44,1.66,10.6-1.98,14.01Z"/>
  <path class="cls-1" d="M162.04,643.12c-7.68-1.41-10.13-.31-17,0,3.56-3.13,13.36-3.16,17,0Z"/>
  <path class="cls-1" d="M583.04,468.12v4c-2.28,6.06-.4,13.59-1,20-.2,1.77-1.08,3.42-1.08,5.5-.02,8.65,3.1,17.62-.93,26.5-4.65-3.3-4.68-9.48-5.99-14,3.24-6.35,5.25-13.47,5.87-20.63.37-4.26-.8-19.1,1.31-21.22.47-.47,1.71-.02,1.82-.15Z"/>
  <path class="cls-1" d="M271.04,413.12c-.24.41.07,2.02-.47,2.99-5.04,9.05-5.9,10.6-5.53-1.98-1.42-.28-2.46.26-3.71.78-.93.39-8.47,5.48-9.29,6.21l-6-1c-.13-2.62-.41-5.43,0-8,7.24,4.5,16.77-.58,25,1Z"/>
  <path class="cls-1" d="M369.04,410.12c-.23.41.15,1.97-.54,2.92-2.93,4.01-8.61,6.49-13.45,5.59,1.12-2.11,1.97-4.35,2.99-6.51l11-2Z"/>
  <path class="cls-1" d="M427.04,416.12c-4.18,3.02-9.42,12.99-12.29,3.63-.72-2.34.3-2.5.29-2.63l12-1Z"/>
  <path class="cls-1" d="M539.04,432.12c1.52.17,7.21.6,7.85,1.21.6.57-.06,2.55.15,2.79-2.42.21-4.83,2.72-7.36,1.92-3.17-1-.53-4.35-.64-5.92Z"/>
  <path class="cls-1" d="M123.04,448.12c.05,10.99-.07,22.02,0,33-2.93-10.63.93-22.45-2-33,.59-.13,1.62.19,2,0Z"/>
  <path class="cls-1" d="M252.04,421.12c-.76.68-2.51,6.67-5.99,6-.09-2.32.11-4.68,0-7l6,1Z"/>
  <path class="cls-1" d="M509.04,432.12c-.21.25.6,4.11-3.71,4.73-1.27.18-1.92-.71-2.29-.73-.98-4.02,2.76-3.9,6-4Z"/>
  <path class="cls-1" d="M459.04,411.12l-5.49,6.01c-1.83-2.22,2-5.05,2.49-6.01.97-.1,2.06.14,3,0Z"/>
  <path class="cls-1" d="M505.04,360.12c.73.09,1.91,1.16,2.99,1.03.22.29-1.63,5.86-1.99,6.97-6.62-.73-8.5,4.47-9.01,10-6.8.53-4.76-15.56-2.82-16.84.7-.47,9.36-1.35,10.83-1.16Z"/>
  <path class="cls-1" d="M369.04,279.12c-8.18-.55-17.64-2-25.5-2h-20c-1.16,0-7.02-1.31-8.5-2,3.77.19,9.59,1,12.5,1h21l20.5,3Z"/>
  <path class="cls-1" d="M138.04,347.12c-.6-2.12-.94-.19-1-5,11.75-8.28,11.73,4.34,1,5Z"/>
  <path class="cls-1" d="M171.04,388.12c2.59-3.97,2.17-13.01,8.05-8.55,8.18,6.22,1.65,10.49-6.05,10.55-2.59-1.45-1.85-1.92-2-2Z"/>
  <path class="cls-1" d="M94.05,173.12c-.06-2.29-1.77-4.05-2.6-5.92-.63-1.44-2.44-1.18.09-3.06,2.73,2.43,7.31,6.17,2.51,8.98Z"/>
  <path class="cls-1" d="M384.75,353.41c2.23,2.16,3.84,11.66,2.74,14.66-1.77,4.86-9.95,8.95-10.97,11.04-1.54,3.15,1.61,7.59-6.23,4.25-2.08-.89-3.44-3.04-3.87-5.22-1.86-9.54,17.14-15.09,14.62-26.03.45-.49,3.06.66,3.71,1.29Z"/>
  <path class="cls-1" d="M456.03,361.12c1.37,10.78-4.85,23.39-15.99,25.99-1.26-7.53,1.92-12.49,6.48-18.01.92-1.11,8.5-9.12,9.51-7.98Z"/>
  <path class="cls-1" d="M332.03,357.13l-7.03,10.46c-3.66,1.97-12.09,5.03-9.17-2.17,2.46-6.07,10.25-7.59,16.2-8.29Z"/>
  <path class="cls-1" d="M269.03,383.12c2.85,2.93-4.34,10.61-8.99,7.99-2.64-4.84,7.23-9.8,8.99-7.99Z"/>
  <path class="cls-1" d="M251.04,359.12h-3c-5.46,0-11.67.43-17,0,4.45-1.45,11.89-1.49,16.6-1.07,1.89.17,3.15,1.04,3.4,1.07Z"/>
  <path class="cls-1" d="M402.7,230.26c7.23-2.43,7.7,8.95.05,6.67-3.64-1.08-2.81-5.75-.05-6.67Z"/>
  <path class="cls-1" d="M271.9,229.99c-3.33,1.65-8.1,2.09-8.86-2.42-1.76-10.56,12.39-3.21,8.86,2.42Z"/>
  <path class="cls-1" d="M492.04,281.12c2.02-.23,4.04.37,5.88,1.12,3.79,6.01-10.55,14.77-5.88-1.12Z"/>
  <path class="cls-1" d="M152.04,263.12c.3,1.73,2.38,2.21,3,3v8c-1.01,1.39-4.53-6.73-4.77-7.74-.44-1.9-1.15-3.77,1.77-3.26Z"/>
  <path class="cls-1" d="M396.03,44.11c-2.62,2.6-6.33-5.07-2.48-5.99,2.75-.66,3,5.48,2.48,5.99Z"/>
  <path class="cls-1" d="M172.04,63.12c3.35-.74,6.96,7.27,3.48,7.99-2.72.56-3.38-6.44-3.48-7.99Z"/>
  <path class="cls-1" d="M571.04,184.11c-1.81-7.34,8.06-10.84,3.75-2.74-.81,1.51-1.74,3.06-3.75,2.74Z"/>
  <path class="cls-1" d="M553.04,565.12v-117c.88.77,1.19,1.09,1.06,2.4-.87,38.11,1.42,76.81-1.06,114.6Z"/>
  <path class="cls-1" d="M504.04,516.12v-67c.83.77,1.23,1.05,1.06,2.4-.27,19.7.17,39.41-.04,59.11-.02,1.69.64,4.45-1.02,5.49Z"/>
  <path class="cls-1" d="M468.04,633.12v-63c.82,20.92-.61,42.06,0,63Z"/>
  <path class="cls-1" d="M159.04,593.12c-3.14-11.32-.97-40.46-1-54l1,54Z"/>
  <path class="cls-1" d="M101.64,434.17c3.2-.57,7.65,10.37-.9,7.76-4.7-1.43-1.23-7.39.9-7.76Z"/>
  <path class="cls-1" d="M426.04,593.12c-1.66-1.04-1-3.79-1.02-5.49-.12-9.59-.87-21.85-.05-31.12.17-1.98.23-1.86,1.07-3.4v40Z"/>
  <path class="cls-1" d="M434.04,436.13c.22-.26,6.14-2.08,6.48-2.01,3.34.65,1.29,8.11-3.77,6.86-1.71-.42-3.65-3.76-2.71-4.85Z"/>
  <path class="cls-1" d="M123.04,610.12c-2.16-11.13-.99-23.75,0-35v35Z"/>
  <path class="cls-1" d="M147.03,639.11c-5.44.25-9.01,3.69-8.99-3.99.72-.69,9.96.49,8.99,3.99Z"/>
  <path class="cls-1" d="M468.04,483.12c-1.66-1.04-1-3.79-1.02-5.49-.1-7.86-.84-18.65-.04-26.12.15-1.44.08-1.4,1.06-2.4-.02,11.32.03,22.68,0,34Z"/>
  <path class="cls-1" d="M331.04,438.12c-1.58-.04-4.58.47-5.57-.93-3.66-5.13,7.51-8.76,5.57.93Z"/>
  <path class="cls-1" d="M158.04,478.12c-.03-9.99.02-20.01,0-30,1.96,3.75,1.07,19.12,1.02,24.51-.02,1.69.64,4.45-1.02,5.49Z"/>
  <path class="cls-1" d="M205.04,561.12c-.24-9.51-.27-19.5,0-29,1.76,7.22,1.1,15.95,1.02,23.51-.02,1.69.64,4.45-1.02,5.49Z"/>
  <path class="cls-1" d="M224.04,437.13c.33-.39,7.81-2.11,7,1.48-.9,3.98-10.09,2.11-7-1.48Z"/>
  <path class="cls-1" d="M518.04,516.12c-1.77-5.82-1.08-13.31-1.02-19.51.02-1.69-.64-4.45,1.02-5.49.2,8.02.39,17.03,0,25Z"/>
  <path class="cls-1" d="M615.03,633.13c2.27,2.4-6.9,3.34-7.99,2.98-.54-4.24,6.27-4.81,7.99-2.98Z"/>
  <path class="cls-1" d="M518.04,471.12c-1.66-1.04-1-3.79-1.02-5.49-.05-3.64-.76-16.72,1.02-18.51-.16,7.98.22,16.03,0,24Z"/>
  <path class="cls-1" d="M370.04,510.12c-.17-7.64.23-15.36,0-23,1.49,5.95,1.45,14.34,1.04,20.55-.07,1.01.31,2.34-1.04,2.45Z"/>
  <path class="cls-1" d="M518.04,633.12c-.13.01-.21,1.26-.99,1,.58-6.74-1.29-14.59.99-21,.47,6.53-.34,13.43,0,20Z"/>
  <path class="cls-1" d="M376.04,537.12c-1.45-4.45-1.49-11.89-1.07-16.6.17-1.94,1.02-3.05,1.07-3.4-.09,6.65.13,13.35,0,20Z"/>
  <path class="cls-1" d="M582.04,492.12c.6-6.41-1.28-13.94,1-20,0,7.3-.19,12.98-1,20Z"/>
  <path class="cls-1" d="M265.04,521.12c-.35-6.49,0-13.45,0-20,1.68,5.81,1.67,14.27,0,20Z"/>
  <path class="cls-1" d="M440.04,632.12c-6.22,2.11-13.37.53-20,1,.22-.04.94-.87,2.4-1.06,5.37-.67,12.06.6,17.6.06Z"/>
  <path class="cls-1" d="M266.04,547.12v-19c.66,8.03.88,10.89,0,19Z"/>
  <path class="cls-1" d="M376.04,581.12c-1.68-5.08-1.67-12.99,0-18,.01,5.99,0,12.01,0,18Z"/>
  <path class="cls-1" d="M206.04,519.12v-18c.85,7.81.68,10.25,0,18Z"/>
  <path class="cls-1" d="M206.04,589.12c-.12-5.65.16-11.36,0-17,2.02,5.15,1.23,11.93,0,17Z"/>
  <path class="cls-1" d="M468.04,533.12c-1.66-4.05-1.69-11.74,0-16-.01,5.29.25,10.72,0,16Z"/>
  <path class="cls-1" d="M159.03,439.13c.24,3.5-3.32,3.15-5.99,2.99-.24-3.5,3.32-3.15,5.99-2.99Z"/>
  <path class="cls-1" d="M427.04,518.12c-1.82-4.53-.99-10.87-1-16,2.26,4.52.44,10.91,1,16Z"/>
  <path class="cls-1" d="M412.04,571.12v-15c.76,6.91.81,8.13,0,15Z"/>
  <polygon class="cls-1" points="75.03 437.12 74.03 441.12 70.05 439.6 75.03 437.12"/>
  <path class="cls-1" d="M283.04,483.12c0-4.99,0-10.01,0-15,1.65,2.03,1.59,14.48,0,15Z"/>
  <path class="cls-1" d="M79.8,533.89c-1.09,1.1-11.29,1.72-11.77,1.23l1-52.01c3.44.36,10.56-1.53,11.8,2.71-.17,6.16,1.28,45.75-1.03,48.07Z"/>
</svg>