<?xml version="1.0" encoding="UTF-8"?>
<svg width="24" height="24" viewBox="0 0 24 24" xmlns="http://www.w3.org/2000/svg">
    <path fill="#FFD700" d="M14.47 3.12a1 1 0 0 0-1.47.88v16a1 1 0 0 0 1.47.88l6-4A1 1 0 0 0 21 16V8a1 1 0 0 0-.53-.88l-6-4zM3 15V9h2l4-4v14l-4-4H3z"/>
    <path fill="#FFD700" d="M19.07 4.93a1 1 0 0 0-1.414 0L16.95 5.636a1 1 0 0 0 0 1.414l1.414 1.414-1.414 1.414a1 1 0 0 0 0 1.414l.707.707a1 1 0 0 0 1.414 0l1.414-1.414 1.414 1.414a1 1 0 0 0 1.414 0l.707-.707a1 1 0 0 0 0-1.414L22.607 8.464l1.414-1.414a1 1 0 0 0 0-1.414l-.707-.707a1 1 0 0 0-1.414 0L20.485 6.343 19.07 4.93z"/>
</svg>
